<?xml version="1.0" encoding="utf-8"?>
<!-- Generator: Adobe Illustrator 22.0.1, SVG Export Plug-In . SVG Version: 6.00 Build 0)  -->
<svg version="1.1" id="Calque_1" xmlns="http://www.w3.org/2000/svg" xmlns:xlink="http://www.w3.org/1999/xlink" x="0px" y="0px"
	 viewBox="0 0 239 143.1" style="enable-background:new 0 0 239 143.1;" xml:space="preserve">
<style type="text/css">
	.st0{fill:#cbcbcb;}
</style>
<g>
	<path class="st0" d="M138.2,83.9c-28.6,0-57.3,0-85.9,0c-8.4,0-13.2-3.7-14.1-10.4c-0.8-6.6,3.4-12.3,9.9-13.3c2-0.3,4-0.3,6-0.3
		c56.3,0,112.6,0,168.9,0c10.5,0,16.1,4.3,16,12.2c-0.1,7.7-5.6,11.8-15.8,11.8C194.9,84,166.5,83.9,138.2,83.9z"/>
	<path class="st0" d="M83,143c-23.5,0-47-0.3-70.4,0.1c-11.1,0.2-14.3-10-11.6-17.2c1.8-4.7,5.2-7.1,10.4-7c10,0.1,20,0,30,0
		c37.3,0,74.6,0,111.9,0c9.4,0,14.7,7.8,11.4,16.7c-1.9,5.2-5,7.2-11.2,7.2C130,143,106.5,143,83,143z"/>
	<path class="st0" d="M82.4,23.9c-23.3,0-46.6,0-69.9,0C3.6,23.9-1.2,18,0.3,9.3c1.1-6,4.8-9.2,11.1-9.3c9.3-0.1,18.6,0,28,0
		c38,0,75.9,0,113.9,0c9.2,0,14.4,7.6,11.5,16.3c-1.8,5.4-5,7.6-11.4,7.6C129.7,24,106.1,23.9,82.4,23.9z"/>
</g>
</svg>
