<svg id="Calque_1" data-name="Calque 1" xmlns="http://www.w3.org/2000/svg" viewBox="0 0 262.1 245.44"><defs><style>.cls-1{fill:#fff;}</style></defs><title>dots</title><path class="cls-1" d="M355.34,429c-31.75-.69-62.64-10-87.59-34.49-18-17.69-27.74-39.62-31.2-64.39-4-28.41-1.07-55.94,12.79-81.45,17.88-32.92,46.42-52.11,82.24-60.55,40-9.43,78.22-4.6,113.06,18.09,31.64,20.6,49.27,50.76,52,87.92,3.43,46.56-17,82.8-54.69,109.33C418,420.31,387.79,429,355.34,429ZM256.2,303.33c.94,7.75,1.43,15.58,2.9,23.23C268.54,376,316,430.86,386.22,417.3c42.2-8.16,71.16-31.52,83.91-73.27,13-42.46,3.24-80.66-24.65-113.81-24-28.48-55.25-41.1-93-36.12C296,201.55,256.77,246.1,256.2,303.33Z" transform="translate(-234.92 -183.54)"/></svg>