<svg id="Calque_1" data-name="Calque 1" xmlns="http://www.w3.org/2000/svg" viewBox="0 0 355.65 362.32" style="fill:#ffffff;"><title>insta</title><path d="M488.67,309.92c0,31.15.5,62.32-.13,93.46-.67,32.85-15.75,58-43.67,75.22C430.93,487.21,415.51,491,399.13,491q-88.19,0-176.38,0c-22.15,0-41.75-7.08-58.52-21.51a86.35,86.35,0,0,1-29.73-52.84,95.36,95.36,0,0,1-1.22-15.19q-.12-91.47,0-182.93c0-26.85,10-49.42,30-67.4A86.2,86.2,0,0,1,206.93,130a93.54,93.54,0,0,1,16.28-1.32q88,0,175.91,0c27.92,0,51,10.88,69,32.15a85.22,85.22,0,0,1,20.12,48.72c.27,3.05.39,6.13.39,9.19q0,45.58,0,91.17Zm-327.81-.11q0,38.61,0,77.22c0,12.18,2.36,23.85,8.15,34.56,14.36,26.52,36.72,40.82,66.95,41.07,50,.42,100.05.11,150.08.11a74.55,74.55,0,0,0,56.47-25.69c11.92-13.72,18.4-29.73,18.45-47.93.16-52.89.07-105.79.05-158.69A69.18,69.18,0,0,0,457,207.41a74.27,74.27,0,0,0-31.17-39.13,70.88,70.88,0,0,0-38.3-11.4q-75.94-.15-151.9,0c-1.69,0-3.39.07-5.08.2a72.87,72.87,0,0,0-45.27,19.58c-16.25,15.09-24.33,33.9-24.36,56.09Q160.81,271.26,160.86,309.81Z" transform="translate(-133.21 -128.64)"/><path d="M402,309.81a91,91,0,1,1-90.92-91A91,91,0,0,1,402,309.81Zm-91.05,68.55c2.3-.13,4.62-.12,6.89-.42,24.71-3.23,42.66-16.17,53.37-38.49,9.29-19.38,9.38-39.37.2-58.83-10.6-22.47-28.48-35.68-53.31-38.85a60.42,60.42,0,0,0-38,7.38c-23.07,13-34.88,33-36,59.37a63.16,63.16,0,0,0,7.35,32.5C264.06,364.85,284,377.2,310.92,378.36Z" transform="translate(-133.21 -128.64)"/><path d="M377.91,215.24a27.35,27.35,0,1,1,27.28,27.29A27.29,27.29,0,0,1,377.91,215.24Z" transform="translate(-133.21 -128.64)"/></svg>
