<?xml version="1.0" encoding="utf-8"?>
<!-- Generator: Adobe Illustrator 22.0.1, SVG Export Plug-In . SVG Version: 6.00 Build 0)  -->
<svg version="1.1" id="Calque_1" xmlns="http://www.w3.org/2000/svg" xmlns:xlink="http://www.w3.org/1999/xlink" x="0px" y="0px"
	 viewBox="0 0 358.6 358.6" style="enable-background:new 0 0 358.6 358.6;" xml:space="preserve">
<g>
	<path d="M179.3,0c99.1,0,179.3,80.4,179.3,179.8c-0.1,98.9-80.6,178.9-180.2,178.8C80.3,358.5,0.1,277.9,0,179.4
		C-0.1,80.6,80.4,0,179.3,0z M13.9,179.4c0.1,91.3,73.9,165.1,165.2,165.3c91.2,0.2,165.6-74.2,165.5-165.4
		C344.5,87.9,270.4,13.9,179,14C87.9,14.1,13.8,88.3,13.9,179.4z"/>
	<path d="M158,152.6c10,0,19.6,0,29.5,0c0,4.6,0,9,0,13.3c0.6,0.1,0.9,0.3,1,0.2c7.5-10.4,18.4-13.6,30.3-13.5
		c6.7,0.1,13.7,0.9,20.2,2.9c11.8,3.6,17.4,13.1,19.4,24.6c1.1,6.1,1.6,12.3,1.7,18.5c0.2,19.4,0.1,38.8,0.1,58.2c0,1-0.1,2-0.2,3.2
		c-10.5,0-20.9,0-31.7,0c-0.1-1.3-0.2-2.7-0.2-4c0-15.7,0.1-31.4-0.1-47.1c-0.1-5.3-0.4-10.7-1.5-15.8c-1.8-8.9-7.5-13.4-16.2-13.8
		c-9.9-0.4-16.4,3.4-19.1,12.2c-1.3,4.2-1.9,8.7-2,13.1c-0.2,16.9-0.1,33.7-0.1,50.6c0,1.5,0,3,0,4.9c-10.4,0-20.6,0-31.1,0
		C158,224.2,158,188.5,158,152.6z"/>
	<path d="M98.8,152.6c12.3,0,24.5,0,36.9,0c0,35.7,0,71.3,0,107.2c-12.2,0-24.4,0-36.9,0C98.8,224.2,98.8,188.5,98.8,152.6z"/>
	<path d="M136,117.5c-0.1,10.5-8.4,18.7-19,18.6c-10.4-0.1-18.5-8.3-18.5-18.7c0-10.6,8.2-18.8,18.8-18.8
		C127.9,98.6,136,106.9,136,117.5z"/>
</g>
</svg>
