<?xml version="1.0" encoding="utf-8"?>
<!-- Generator: Adobe Illustrator 22.0.1, SVG Export Plug-In . SVG Version: 6.00 Build 0)  -->
<svg version="1.1" id="Calque_1" xmlns="http://www.w3.org/2000/svg" xmlns:xlink="http://www.w3.org/1999/xlink" x="0px" y="0px"
	 viewBox="0 0 595.3 595.3" style="enable-background:new 0 0 595.3 595.3;" xml:space="preserve">
<g>
	<path d="M65,72.3c30.1-16.5,59.8-32.8,89.9-49.2c0.3,0.7,0.7,1.1,1,1.8c52.9,96.6,106,193.4,159.1,290c0.8,1.5,0.8,2.6-0.3,3.8
		c-0.3,0.5-0.5,1-0.7,1.6c-0.3,1.6-1.8,2.1-3.1,2.9c-25.6,14-51.3,28.1-76.9,42.1c-1.6,0.8-2.9,1.3-4.6,0.5c-0.2,0-0.3-0.2-0.3-0.2
		c-2.8,1.1-3.4-1.1-4.4-2.9c-52.6-96.1-105.4-192.1-158-288C66,74.1,65.5,73.1,65,72.3z"/>
	<path d="M367.7,439.9c-1.8,2.1-3.9,4.1-5.7,6.2c-1.3,1.5-2.3,3.1-3.6,4.6c-0.8,1-2,1.8-2.9,2.5c-11.6,6.4-23.2,12.7-34.8,19.1
		c-2,1-3.9,1.6-6.2,1.5c-2.1-0.2-4.2,0.7-6.2,1c-1.8,0.3-3.6,0.5-5.4,0.8c-0.3,0-0.7-0.3-0.8-0.5c-0.3-0.5-0.5-1-0.8-1.5
		c-11.3-20.6-22.7-41.3-34-62.1c-0.3-0.7-0.7-1.3-1.1-2.1c21.9-11.9,43.6-23.9,65.5-35.9C343.4,395.6,355.5,417.7,367.7,439.9z"/>
	<path d="M315.6,326.2c2.1,3.8,3.9,7.2,5.9,10.8c3.4,6.4,6.7,12.7,10.5,18.8c1.3,2.1,0.8,3.9,0.5,5.7c-0.5,2.5-1.6,4.7-2.6,7
		c-0.2,0.5-1,1-1.8,1.3c-13.7,7.5-27.6,15.2-41.3,22.7c-7.2,3.9-14.4,7.8-21.6,11.8c-1.1,0.7-2,1-3.3,0.7c-2.8-0.8-5.7-1.5-8.7-2.1
		c-0.5-0.2-1.1-0.7-1.3-1c-5.6-10.3-11.3-20.6-16.8-30.7c-0.2-0.2,0-0.3-0.2-0.7C261.7,355.8,288.5,341,315.6,326.2z"/>
	<path d="M336.8,489.6c0.8-0.5,1.3-1,2-1.3c6.5-3.6,13.2-7.2,19.8-10.8c1.5-0.8,2.1-0.8,3.1,0.8c7.5,13.9,15,27.6,22.7,41.3
		c0.7,1.3,0.5,2-0.8,2.6c-6.7,3.8-13.6,7.5-20.3,11.1c-0.7,0.3-1.3,0.5-2,0.8C353.2,519.3,345,504.4,336.8,489.6z"/>
	<path d="M328.2,488.1c-2-3.6-3.9-7.2-5.9-10.9c12.1-6.7,24-13.1,36.1-19.8c2,3.6,3.9,7.2,5.9,10.9
		C352.4,474.8,340.4,481.4,328.2,488.1z"/>
	<path d="M395.3,563.4c-1.3,0.7-2.5,1.3-3.6,2c-0.3-0.7-0.7-1-1-1.6c-5.2-9.6-10.6-19.3-15.8-28.9c-0.3-0.7-0.8-1.8-0.7-2
		c0.8-0.7,1.8-1.1,2.9-1.6c0.2-0.2,0.7,0.3,1,0.8C383.9,542.5,389.5,552.8,395.3,563.4z"/>
</g>
</svg>
